<svg xmlns="http://www.w3.org/2000/svg" xmlns:xlink="http://www.w3.org/1999/xlink" viewBox="0,0,256,256" width="100px" height="100px"><g fill="none" fill-rule="nonzero" stroke="none" stroke-width="1" stroke-linecap="butt" stroke-linejoin="miter" stroke-miterlimit="10" stroke-dasharray="" stroke-dashoffset="0" font-family="none" font-weight="none" font-size="none" text-anchor="none" style="mix-blend-mode: normal"><g transform="scale(2.56,2.56)"><path d="M82,88l-15.811,-12.252l1.757,5.252h-42.162c-4.851,0 -8.784,-3.916 -8.784,-8.75v-45.5c0,-4.833 3.933,-8.75 8.784,-8.75h47.432c4.852,0 8.784,3.916 8.784,8.75z" fill="#beace5"></path><path d="M82,89c-0.218,0 -0.434,-0.071 -0.612,-0.21l-13.204,-10.231l0.71,2.124c0.102,0.305 0.051,0.641 -0.137,0.901c-0.188,0.262 -0.489,0.416 -0.811,0.416h-42.162c-5.395,0 -9.784,-4.374 -9.784,-9.75v-45.5c0,-5.376 4.389,-9.75 9.784,-9.75h47.433c5.394,0 9.783,4.374 9.783,9.75v61.25c0,0.382 -0.217,0.729 -0.56,0.897c-0.14,0.07 -0.29,0.103 -0.44,0.103zM66.189,74.748c0.216,0 0.433,0.07 0.612,0.21l14.199,11.002v-59.21c0,-4.273 -3.492,-7.75 -7.784,-7.75h-47.432c-4.292,0 -7.784,3.477 -7.784,7.75v45.5c0,4.273 3.492,7.75 7.784,7.75h40.773l-1.316,-3.935c-0.14,-0.418 0.01,-0.878 0.37,-1.133c0.173,-0.122 0.375,-0.184 0.578,-0.184z" fill="#000000"></path><path d="M58.289,65.5c-0.158,0 -0.306,-0.074 -0.4,-0.201l-1.582,-2.118c-0.096,-0.128 -0.125,-0.293 -0.078,-0.446c0.047,-0.152 0.164,-0.273 0.315,-0.325c1.736,-0.599 3.334,-1.405 4.783,-2.412c-3.271,1.381 -7.182,2.059 -11.827,2.059c-4.645,0 -8.555,-0.678 -11.827,-2.059c1.448,1.007 3.046,1.813 4.783,2.412c0.151,0.052 0.268,0.173 0.315,0.325c0.047,0.153 0.018,0.318 -0.078,0.446l-1.582,2.118c-0.094,0.127 -0.243,0.201 -0.4,0.201c-0.001,0 -0.001,0 -0.002,0c-0.322,-0.001 -7.939,-0.103 -13.085,-5.992c-0.086,-0.1 -0.13,-0.229 -0.123,-0.359c0.858,-14.083 5.746,-21.277 5.954,-21.576c0.028,-0.041 0.062,-0.077 0.101,-0.107c0.177,-0.14 4.394,-3.421 10.031,-3.962c0.016,-0.001 0.032,-0.002 0.048,-0.002c0.189,0 0.364,0.107 0.449,0.28l0.464,0.947c0.068,0.138 0.068,0.299 0.002,0.437c-0.066,0.138 -0.193,0.238 -0.342,0.271c-2.053,0.455 -3.709,1.118 -5.108,1.893c2.815,-1.067 6.022,-1.782 10.432,-1.782c4.442,0 7.665,0.738 10.505,1.833c-1.353,-0.75 -3.003,-1.402 -5.253,-1.945c-0.147,-0.035 -0.271,-0.136 -0.335,-0.273c-0.064,-0.137 -0.063,-0.296 0.004,-0.433l0.464,-0.947c0.084,-0.172 0.259,-0.28 0.449,-0.28c0.012,0 0.025,0 0.037,0.001c5.386,0.402 9.851,3.815 10.039,3.96c0.04,0.031 0.076,0.068 0.104,0.11c0.208,0.299 5.095,7.493 5.954,21.576c0.008,0.131 -0.036,0.26 -0.123,0.359c-5.146,5.89 -12.763,5.991 -13.085,5.992c-0.001,-0.001 -0.002,-0.001 -0.003,-0.001z" fill="#ffffff"></path><path d="M55.365,34c5.298,0.396 9.77,3.858 9.77,3.858c0,0 5.005,7.216 5.865,21.321c-5.057,5.787 -12.711,5.821 -12.711,5.821l-1.582,-2.118c2.7,-0.93 5.779,-2.601 8.428,-5.632c-3.165,2.377 -7.929,4.306 -15.635,4.306c-7.706,0 -12.47,-1.929 -15.635,-4.306c2.649,3.031 5.728,4.702 8.428,5.632l-1.582,2.118c0,0 -7.654,-0.034 -12.711,-5.821c0.86,-14.105 5.865,-21.321 5.865,-21.321c0,0 4.214,-3.324 9.77,-3.858l0.464,0.947c-4.352,0.964 -6.966,2.824 -9.254,4.874c3.939,-2.015 7.874,-3.775 14.686,-3.775c6.812,0 10.684,1.76 14.623,3.775c-2.288,-2.049 -4.472,-3.72 -9.254,-4.874l0.465,-0.947M43.635,33c-0.032,0 -0.064,0.002 -0.096,0.005c-5.782,0.556 -10.112,3.925 -10.293,4.068c-0.078,0.061 -0.146,0.134 -0.202,0.215c-0.211,0.304 -5.175,7.609 -6.042,21.83c-0.016,0.263 0.072,0.521 0.245,0.719c5.293,6.057 13.128,6.162 13.459,6.163c0.001,0 0.003,0 0.005,0c0.315,0 0.612,-0.149 0.801,-0.402l1.582,-2.118c0.191,-0.256 0.249,-0.588 0.155,-0.893c-0.079,-0.256 -0.257,-0.468 -0.49,-0.591c2.058,0.374 4.301,0.559 6.741,0.559c2.44,0 4.683,-0.185 6.741,-0.559c-0.234,0.123 -0.411,0.335 -0.49,0.591c-0.094,0.305 -0.037,0.637 0.155,0.893l1.582,2.118c0.189,0.253 0.486,0.402 0.801,0.402c0.002,0 0.003,0 0.005,0c0.331,-0.001 8.166,-0.106 13.459,-6.163c0.173,-0.198 0.261,-0.456 0.245,-0.719c-0.867,-14.221 -5.831,-21.526 -6.042,-21.83c-0.058,-0.084 -0.129,-0.158 -0.21,-0.221c-0.192,-0.149 -4.773,-3.65 -10.307,-4.064c-0.024,-0.002 -0.049,-0.003 -0.074,-0.003c-0.379,0 -0.729,0.215 -0.898,0.56l-0.464,0.947c-0.125,0.255 -0.135,0.551 -0.03,0.813c-1.346,-0.177 -2.813,-0.274 -4.442,-0.274c-1.655,0 -3.143,0.099 -4.506,0.278c0.107,-0.263 0.098,-0.56 -0.028,-0.817l-0.464,-0.947c-0.169,-0.345 -0.519,-0.56 -0.898,-0.56z" fill="#000000"></path><ellipse cx="56" cy="51" rx="3.5" ry="4.5" fill="#beace5"></ellipse><path d="M56,47c1.65,0 3,1.792 3,4c0,2.208 -1.35,4 -3,4c-1.65,0 -3,-1.792 -3,-4c0,-2.208 1.35,-4 3,-4M56,46c-2.206,0 -4,2.243 -4,5c0,2.757 1.794,5 4,5c2.206,0 4,-2.243 4,-5c0,-2.757 -1.794,-5 -4,-5z" fill="#000000"></path><ellipse cx="43" cy="51" rx="3.5" ry="4.5" fill="#beace5"></ellipse><path d="M43,47c1.65,0 3,1.792 3,4c0,2.208 -1.35,4 -3,4c-1.65,0 -3,-1.792 -3,-4c0,-2.208 1.35,-4 3,-4M43,46c-2.206,0 -4,2.243 -4,5c0,2.757 1.794,5 4,5c2.206,0 4,-2.243 4,-5c0,-2.757 -1.794,-5 -4,-5z" fill="#000000"></path><path d="M77.5,45.305c-0.276,0 -0.5,-0.224 -0.5,-0.5v-5.49c0,-0.276 0.224,-0.5 0.5,-0.5c0.276,0 0.5,0.224 0.5,0.5v5.49c0,0.276 -0.224,0.5 -0.5,0.5z" fill="#000000"></path><path d="M77.5,36.752c-0.276,0 -0.5,-0.224 -0.5,-0.5v-4.468c0,-0.276 0.224,-0.5 0.5,-0.5c0.276,0 0.5,0.224 0.5,0.5v4.468c0,0.276 -0.224,0.5 -0.5,0.5z" fill="#000000"></path><g fill="#000000"><path d="M26.658,77c-3.12,0 -5.658,-2.538 -5.658,-5.658v-43.684c0,-3.12 2.538,-5.658 5.658,-5.658h45.685c0.276,0 0.5,0.224 0.5,0.5c0,0.276 -0.224,0.5 -0.5,0.5h-45.685c-2.569,0 -4.658,2.089 -4.658,4.658v43.684c0,2.568 2.089,4.658 4.658,4.658c0.276,0 0.5,0.224 0.5,0.5c0,0.276 -0.224,0.5 -0.5,0.5z"></path></g><g fill="#000000"><path d="M37.064,77h-7.181c-0.276,0 -0.5,-0.224 -0.5,-0.5c0,-0.276 0.224,-0.5 0.5,-0.5h7.181c0.276,0 0.5,0.224 0.5,0.5c0,0.276 -0.224,0.5 -0.5,0.5z"></path></g><g fill="#000000"><path d="M60.873,77h-19.5c-0.276,0 -0.5,-0.224 -0.5,-0.5c0,-0.276 0.224,-0.5 0.5,-0.5h19.5c0.276,0 0.5,0.224 0.5,0.5c0,0.276 -0.224,0.5 -0.5,0.5z"></path></g><g fill="#000000"><path d="M75.599,75.842c-0.146,0 -0.289,-0.063 -0.388,-0.185c-0.174,-0.214 -0.142,-0.528 0.072,-0.703c1.091,-0.888 1.717,-2.206 1.717,-3.612v-22.452c0,-0.276 0.224,-0.5 0.5,-0.5c0.276,0 0.5,0.224 0.5,0.5v22.452c0,1.708 -0.76,3.308 -2.085,4.388c-0.093,0.075 -0.205,0.112 -0.316,0.112z"></path></g></g></g></svg>