<svg xmlns="http://www.w3.org/2000/svg" xmlns:xlink="http://www.w3.org/1999/xlink" viewBox="0,0,256,256" width="100px" height="100px"><g fill="none" fill-rule="nonzero" stroke="none" stroke-width="1" stroke-linecap="butt" stroke-linejoin="miter" stroke-miterlimit="10" stroke-dasharray="" stroke-dashoffset="0" font-family="none" font-weight="none" font-size="none" text-anchor="none" style="mix-blend-mode: normal"><g transform="scale(2.56,2.56)"><path d="M69.307,81.654h-39c-6.6,0 -12,-5.4 -12,-12v-39c0,-6.6 5.4,-12 12,-12h39c6.6,0 12,5.4 12,12v39c0,6.6 -5.4,12 -12,12z" fill="#000000"></path><path d="M69.307,82.654h-39c-7.168,0 -13,-5.832 -13,-13v-39c0,-7.168 5.832,-13 13,-13h39c7.168,0 13,5.832 13,13v39c0,7.168 -5.831,13 -13,13zM30.307,19.654c-6.065,0 -11,4.935 -11,11v39c0,6.065 4.935,11 11,11h39c6.065,0 11,-4.935 11,-11v-39c0,-6.065 -4.935,-11 -11,-11z" fill="#000000"></path><path d="M76.807,48.154v18.663c0,5.685 -4.652,10.337 -10.337,10.337h-33.326c-5.685,0 -10.337,-4.652 -10.337,-10.337v-33.326c0,-5.685 4.652,-10.337 10.337,-10.337h33.663" fill="#000000"></path><path d="M66.47,77.654h-33.326c-5.976,0 -10.837,-4.861 -10.837,-10.837v-33.327c0,-5.976 4.861,-10.837 10.837,-10.837h33.663c0.276,0 0.5,0.224 0.5,0.5c0,0.276 -0.224,0.5 -0.5,0.5h-33.663c-5.424,0 -9.837,4.413 -9.837,9.837v33.326c0,5.424 4.413,9.837 9.837,9.837h33.326c5.424,0 9.837,-4.413 9.837,-9.837v-18.662c0,-0.276 0.224,-0.5 0.5,-0.5c0.276,0 0.5,0.224 0.5,0.5v18.663c0,5.975 -4.861,10.837 -10.837,10.837z" fill="#000000"></path><path d="M76.807,46.654c-0.276,0 -0.5,-0.224 -0.5,-0.5v-4c0,-0.276 0.224,-0.5 0.5,-0.5c0.276,0 0.5,0.224 0.5,0.5v4c0,0.276 -0.224,0.5 -0.5,0.5zM76.807,40.654c-0.276,0 -0.5,-0.224 -0.5,-0.5v-2c0,-0.276 0.224,-0.5 0.5,-0.5c0.276,0 0.5,0.224 0.5,0.5v2c0,0.276 -0.224,0.5 -0.5,0.5z" fill="#000000"></path><path d="M64.807,53.974v10.179h-6l-0.083,-10.092c0,-2.556 -1.163,-4.372 -3.456,-4.372c-1.751,0 -2.788,1.172 -3.248,2.309c-0.165,0.404 -0.213,0.973 -0.213,1.542v10.613h-6.077c0,0 0.082,-17.219 0,-19h6.077v2.933c-0.014,0.022 -0.027,0.045 -0.041,0.067h0.041v-0.067c0.845,-1.41 2.387,-3.053 5.752,-3.053c4.168,-0.007 7.248,2.591 7.248,8.941zM38.825,36.195c-1.877,0 -3.101,1.287 -3.101,2.979c0,1.654 1.188,2.979 3.03,2.979h0.036c1.913,0 3.101,-1.325 3.101,-2.979c-0.042,-1.691 -1.195,-2.979 -3.066,-2.979zM35.807,64.154h6v-19h-6z" fill="#ffffff"></path><path d="M64.807,64.654h-6c-0.274,0 -0.498,-0.221 -0.5,-0.496l-0.083,-10.092c0,-1.168 -0.288,-3.876 -2.956,-3.876c-1.784,0 -2.541,1.396 -2.784,1.997c-0.117,0.287 -0.176,0.743 -0.176,1.354v10.613c0,0.276 -0.224,0.5 -0.5,0.5h-6.078c-0.133,0 -0.261,-0.053 -0.354,-0.147c-0.093,-0.094 -0.146,-0.222 -0.146,-0.355c0.001,-0.172 0.081,-17.226 0,-18.975c-0.006,-0.136 0.043,-0.27 0.138,-0.368c0.095,-0.099 0.225,-0.155 0.362,-0.155h6.077c0.276,0 0.5,0.224 0.5,0.5v1.43c1.288,-1.381 3.071,-2.038 5.271,-2.05c2.188,0 3.968,0.668 5.288,1.986c1.62,1.617 2.441,4.125 2.441,7.456v10.179c0,0.275 -0.224,0.499 -0.5,0.499zM59.303,63.654h5.004v-9.679c0,-3.055 -0.723,-5.325 -2.148,-6.748c-1.125,-1.124 -2.667,-1.693 -4.582,-1.693c-0.006,0 -0.011,0 -0.017,0c-3.215,0 -4.561,1.557 -5.292,2.756c-0.075,0.199 -0.253,0.364 -0.461,0.364c-0.181,0 -0.368,-0.098 -0.457,-0.255c-0.077,-0.137 -0.1,-0.3 -0.043,-0.441v-2.304h-5.064c0.053,3.027 0.001,15.303 -0.011,18h5.075v-10.114c0,-0.753 0.082,-1.319 0.25,-1.731c0.663,-1.64 2.051,-2.62 3.71,-2.62c2.44,0 3.956,1.867 3.956,4.873zM41.807,64.654h-6c-0.276,0 -0.5,-0.224 -0.5,-0.5v-19c0,-0.276 0.224,-0.5 0.5,-0.5h6c0.276,0 0.5,0.224 0.5,0.5v19c0,0.276 -0.224,0.5 -0.5,0.5zM36.307,63.654h5v-18h-5zM38.789,42.654c-2.081,0 -3.565,-1.463 -3.565,-3.479c0,-2.016 1.515,-3.479 3.602,-3.479c2.048,0 3.515,1.426 3.565,3.467c0,2.028 -1.515,3.491 -3.602,3.491zM38.825,36.695c-1.532,0 -2.602,1.02 -2.602,2.479c0,1.459 1.041,2.479 2.53,2.479c1.567,0 2.637,-1.02 2.637,-2.479c-0.037,-1.501 -1.044,-2.479 -2.565,-2.479z" fill="#000000"></path></g></g></svg>